<svg xmlns="http://www.w3.org/2000/svg" xmlns:xlink="http://www.w3.org/1999/xlink" width="16" height="16" class="icon" p-id="65194" t="1543463145052" version="1.1" viewBox="0 0 1024 1024"><defs><style type="text/css"/></defs><path fill="#EFEFEF" d="M48 0h928c26.4 0 48 21.6 48 48v928c0 26.4-21.6 48-48 48H48c-26.4 0-48-21.6-48-48V48c0-26.4 21.6-48 48-48z" p-id="65195"/><path fill="#2B414D" d="M96 192h832c17.6 0 32 14.4 32 32v704c0 17.6-14.4 32-32 32H96c-17.6 0-32-14.4-32-32V224c0-17.6 14.4-32 32-32z" p-id="65196"/><path fill="#E4E7E7" d="M224 336h464c8.8 0 16 7.2 16 16v16c0 8.8-7.2 16-16 16H224c-8.8 0-16-7.2-16-16v-16c0-8.8 7.2-16 16-16z" p-id="65197"/><path fill="#E35E53" d="M416 448H224c-8.8 0-16 7.2-16 16v16c0 8.8 7.2 16 16 16h192c8.8 0 16-7.2 16-16v-16c0-8.8-7.2-16-16-16z m-48 224H224c-8.8 0-16 7.2-16 16v16c0 8.8 7.2 16 16 16h144c8.8 0 16-7.2 16-16v-16c0-8.8-7.2-16-16-16z m432 0H704c-8.8 0-16 7.2-16 16v16c0 8.8 7.2 16 16 16h96c8.8 0 16-7.2 16-16v-16c0-8.8-7.2-16-16-16z" p-id="65198"/><path fill="#26A6D1" d="M800 448H512c-8.8 0-16 7.2-16 16v16c0 8.8 7.2 16 16 16h288c8.8 0 16-7.2 16-16v-16c0-8.8-7.2-16-16-16z m0 336H224c-8.8 0-16 7.2-16 16v16c0 8.8 7.2 16 16 16h576c8.8 0 16-7.2 16-16v-16c0-8.8-7.2-16-16-16z" p-id="65199"/><path fill="#49B8A4" d="M608 560H224c-8.8 0-16 7.2-16 16v16c0 8.8 7.2 16 16 16h384c8.8 0 16-7.2 16-16v-16c0-8.8-7.2-16-16-16z m0 112H464c-8.8 0-16 7.2-16 16v16c0 8.8 7.2 16 16 16h144c8.8 0 16-7.2 16-16v-16c0-8.8-7.2-16-16-16z" p-id="65200"/><path fill="#BFC3C5" d="M96 64c-17.6 0-32 14.4-32 32s14.4 32 32 32 32-14.4 32-32-14.4-32-32-32z m96 0c-17.6 0-32 14.4-32 32s14.4 32 32 32 32-14.4 32-32-14.4-32-32-32z m96 0c-17.6 0-32 14.4-32 32s14.4 32 32 32 32-14.4 32-32-14.4-32-32-32z" p-id="65201"/></svg>