<svg xmlns="http://www.w3.org/2000/svg" xmlns:xlink="http://www.w3.org/1999/xlink" width="16" height="16" class="icon" p-id="23627" t="1542858074165" version="1.1" viewBox="0 0 1024 1024"><defs><style type="text/css"/></defs><path fill="#54C0EB" d="M512 512m-512 0a512 512 0 1 0 1024 0 512 512 0 1 0-1024 0Z" p-id="23628"/><path fill="#FFF" d="M783.722835 605.530709H299.137008c-43.540157 0-78.211024 35.477165-78.211024 78.211023 0 43.540157 35.477165 78.211024 78.211024 78.211024h484.585827v-156.422047z" p-id="23629"/><path fill="#FF7058" d="M786.141732 774.853543H299.137008c-49.990551 0-90.305512-40.314961-90.305512-90.305512s40.314961-90.305512 90.305512-90.305511H786.141732c6.450394 0 12.094488 5.644094 12.094488 12.094488s-5.644094 12.094488-12.094488 12.094488H299.137008c-37.089764 0-66.922835 29.833071-66.922835 66.922835s29.833071 66.922835 66.922835 66.922834H786.141732c6.450394 0 12.094488 5.644094 12.094488 12.094489 0 4.837795-5.644094 10.48189-12.094488 10.481889z" p-id="23630"/><path fill="#E6E9EE" d="M822.425197 424.113386H337.83937c-43.540157 0-78.211024 35.477165-78.211024 78.211023s35.477165 78.211024 78.211024 78.211024H822.425197v-156.422047z" p-id="23631"/><path fill="#FFF" d="M201.574803 243.502362h484.585827c43.540157 0 78.211024 35.477165 78.211024 78.211024s-35.477165 78.211024-78.211024 78.211023H201.574803v-156.422047z" p-id="23632"/><path fill="#FFD05B" d="M199.155906 412.825197h487.004724c49.990551 0 90.305512-40.314961 90.305512-90.305512s-40.314961-90.305512-90.305512-90.305512H199.155906c-6.450394 0-12.094488 5.644094-12.094489 12.094488s5.644094 12.094488 12.094489 12.094489h487.004724c37.089764 0 66.922835 29.833071 66.922835 66.922834s-29.833071 66.922835-66.922835 66.922835H199.155906c-6.450394 0-12.094488 5.644094-12.094489 12.094488s5.644094 10.48189 12.094489 10.48189z" p-id="23633"/><path fill="#324A5E" d="M824.844094 593.43622H337.83937c-49.990551 0-90.305512-40.314961-90.305512-90.305511s40.314961-90.305512 90.305512-90.305512h487.004724c6.450394 0 12.094488 5.644094 12.094489 12.094488s-5.644094 12.094488-12.094489 12.094488H337.83937c-37.089764 0-66.922835 29.833071-66.922835 66.922835s29.833071 66.922835 66.922835 66.922835h487.004724c6.450394 0 12.094488 5.644094 12.094489 12.094488 0 4.837795-5.644094 10.48189-12.094489 10.481889z" p-id="23634"/><path fill="#4CDBC4" d="M724.056693 474.103937v115.300787l-33.864567-36.283464-37.089764 40.31496v-119.332283z" p-id="23635"/><path fill="#324A5E" d="M386.217323 673.259843v115.300787l-33.058268-36.283465-37.089764 40.314961V673.259843z" p-id="23636"/><path fill="#FF7058" d="M308.812598 285.429921v115.300788l-33.864567-36.283465-36.283464 40.314961v-119.332284z" p-id="23637"/></svg>