<svg xmlns="http://www.w3.org/2000/svg" xmlns:xlink="http://www.w3.org/1999/xlink" width="16" height="16" class="icon" p-id="21391" t="1542857998074" version="1.1" viewBox="0 0 1024 1024"><defs><style type="text/css"/></defs><path fill="#2660D0" d="M896 852H128c-11 0-20-9-20-20V192c0-11 9-20 20-20h768c11 0 20 9 20 20v640c0 11-9 20-20 20zM148 812h728V212H148v600z" p-id="21392"/><path fill="#FFE449" d="M128 192h768v128H128z" p-id="21393"/><path fill="#2660D0" d="M896 340H128c-11 0-20-9-20-20V192c0-11 9-20 20-20h768c11 0 20 9 20 20v128c0 11-9 20-20 20zM148 300h728v-88H148v88zM384 724c-5.2 0-10.2-2-14.2-5.8l-128-128c-7.8-7.8-7.8-20.4 0-28.2l128-128c7.8-7.8 20.4-7.8 28.2 0 7.8 7.8 7.8 20.4 0 28.2L284.2 576l113.8 113.8c7.8 7.8 7.8 20.4 0 28.2-3.8 4-8.8 6-14 6zM640 724c-5.2 0-10.2-2-14.2-5.8-7.8-7.8-7.8-20.4 0-28.2l113.8-113.8-113.8-113.8c-7.8-7.8-7.8-20.4 0-28.2 7.8-7.8 20.4-7.8 28.2 0l128 128c7.8 7.8 7.8 20.4 0 28.2l-128 128c-3.8 3.6-8.8 5.6-14 5.6zM480 724c-1.6 0-3.2-0.2-4.8-0.6-10.8-2.6-17.2-13.6-14.6-24.2l64-256c2.6-10.8 13.6-17.2 24.2-14.6 10.8 2.6 17.2 13.6 14.6 24.2l-64 256c-2.2 9.2-10.4 15.2-19.4 15.2z" p-id="21394"/><path fill="#2660D0" d="M192 256m-20 0a20 20 0 1 0 40 0 20 20 0 1 0-40 0Z" p-id="21395"/><path fill="#2660D0" d="M256 256m-20 0a20 20 0 1 0 40 0 20 20 0 1 0-40 0Z" p-id="21396"/><path fill="#2660D0" d="M320 256m-20 0a20 20 0 1 0 40 0 20 20 0 1 0-40 0Z" p-id="21397"/></svg>