<svg xmlns="http://www.w3.org/2000/svg" xmlns:xlink="http://www.w3.org/1999/xlink" width="16" height="16" class="icon" p-id="27890" t="1542942153051" version="1.1" viewBox="0 0 1024 1024"><defs><style type="text/css"/></defs><path fill="#000" d="M950.4 192H73.6C33.28 192 0 225.28 0 265.6v492.16C0 798.72 33.28 832 73.6 832h876.16c40.96 0 73.6-33.28 73.6-73.6v-492.8C1024 225.28 990.72 192 950.4 192zM576 704H448V512L352 634.88 256 512v192H128V320h128l96 128L448 320h128v384z m191.36 32L608 512H704V320h128v192h96l-160.64 224z" p-id="27891"/></svg>