<svg xmlns="http://www.w3.org/2000/svg" xmlns:xlink="http://www.w3.org/1999/xlink" width="16.016" height="16" class="icon" p-id="48191" t="1543289772066" version="1.1" viewBox="0 0 1025 1024"><defs><style type="text/css"/></defs><path fill="#2BA245" d="M512 0a512 512 0 1 0 512 512A512 512 0 0 0 512 0z m191.146667 554.666667s-75.52 5.973333-58.026667-57.6c-5.12-17.066667 91.733333-60.586667 80.213333-120.746667a87.893333 87.893333 0 0 0-166.826666-2.56v283.733333c0 39.68-77.653333 170.666667-241.066667 115.626667A175.36 175.36 0 0 1 213.333333 609.28 187.733333 187.733333 0 0 1 325.12 469.333333c62.72-17.493333 85.333333 42.666667 58.026667 72.106667-20.053333 9.813333-143.36 61.44-58.026667 144.213333a92.16 92.16 0 0 0 144.213333-26.88V369.066667a173.653333 173.653333 0 0 1 262.826667-103.68s191.146667 111.36-30.293333 290.986666z m0 0" p-id="48192"/></svg>