<svg xmlns="http://www.w3.org/2000/svg" xmlns:xlink="http://www.w3.org/1999/xlink" width="16" height="16" class="icon" p-id="41405" t="1542858400796" version="1.1" viewBox="0 0 1024 1024"><defs><style type="text/css"/></defs><path fill="#FFE15A" d="M115.2 0h797.866667c29.866667 0 55.466667 25.6 55.466666 55.466667v908.8c0 29.866667-25.6 55.466667-55.466666 55.466666H115.2c-29.866667 0-55.466667-25.6-55.466667-55.466666V55.466667C55.466667 25.6 81.066667 0 115.2 0z" p-id="41406"/><path fill="#DCB432" d="M226.133333 226.133333H512V512H226.133333V226.133333z m401.066667 59.733334h170.666667V341.333333h-170.666667V285.866667z m0 110.933333h170.666667v55.466667h-170.666667V396.8z m-401.066667 230.4h567.466667V682.666667H226.133333v-55.466667z m0 110.933333h567.466667v55.466667H226.133333v-55.466667z" p-id="41407"/></svg>