<svg xmlns="http://www.w3.org/2000/svg" xmlns:xlink="http://www.w3.org/1999/xlink" width="16" height="16" class="icon" p-id="16223" t="1542868608570" version="1.1" viewBox="0 0 1024 1024"><defs><style type="text/css"/></defs><path fill="#E2574C" d="M128 96h768a64 64 0 0 1 64 64v800a64 64 0 0 1-64 64H128a64 64 0 0 1-64-64V160a64 64 0 0 1 64-64z" p-id="16224"/><path fill="#BF392C" d="M480 224h64v800h-64V224z" p-id="16225"/><path fill="#F1ABA6" d="M384 448a32 32 0 1 0 0-64 32 32 0 1 0 0 64z m0 64a32 32 0 1 0 0 64 32 32 0 1 0 0-64z m0 128a32 32 0 1 0 0 64 32 32 0 1 0 0-64z m0 128a32 32 0 1 0 0 64 32 32 0 1 0 0-64zM640 448h224v64h-224v-64z" p-id="16226"/><path fill="#A63124" d="M288 0h448a32 32 0 0 1 32 32v192a32 32 0 0 1-32 32H288a32 32 0 0 1-32-32V32a32 32 0 0 1 32-32z" p-id="16227"/><path fill="#CB4E44" d="M896 960H128a64 64 0 0 1-64-64v64a64 64 0 0 0 64 64h768a64 64 0 0 0 64-64v-64a64 64 0 0 1-64 64z" p-id="16228"/><path fill="#AC3327" d="M480 960h64v64h-64z" p-id="16229"/><path fill="#EB8A82" d="M256 32v192a32 32 0 0 0 32 32h224L265.376 9.376A31.776 31.776 0 0 0 256 32zM512 256h224a32 32 0 0 0 32-32V32a31.776 31.776 0 0 0-9.376-22.624L512 256z" p-id="16230"/><path fill="#C85D53" d="M512 256l-32-32v32zM544 256V224l-32 32z" p-id="16231"/></svg>